/* XPM */
static char *comment_edit[] = {
/* columns rows colors chars-per-pixel */
"16 16 88 1 ",
"  c #594218",
". c #BE7A1A",
"X c #84672E",
"o c #88612B",
"O c #AC6A27",
"+ c #AA8943",
"@ c #BD894C",
"# c #C98541",
"$ c #C38C48",
"% c #C78C48",
"& c #C59849",
"* c #D79547",
"= c #DC9542",
"- c #D09D46",
"; c #DF9940",
": c #DD9D51",
"> c #D89A54",
", c #D29B5D",
"< c #D8A558",
"1 c #D39F66",
"2 c #C2A36F",
"3 c #D7A363",
"4 c #D7BA76",
"5 c #D5B67A",
"6 c #E7BE77",
"7 c #E4C955",
"8 c #F5DF5B",
"9 c #F5DC5E",
"0 c #F5DC5F",
"q c #F7E15A",
"w c #F7E25B",
"e c #F8E25D",
"r c #EDCA6D",
"t c #F7DF63",
"y c #F6DD6C",
"u c #E7CB77",
"i c #EDD078",
"p c #EED379",
"a c #EED47C",
"s c #EED57E",
"d c #F0D379",
"f c #F1D47B",
"g c #F2D67A",
"h c #788682",
"j c #5887B8",
"k c #6C95C0",
"l c #7DA2C8",
"z c #879DB4",
"x c #DBB185",
"c c #D1B790",
"v c #C9BCA7",
"b c #E7C08B",
"n c #F9C794",
"m c #F9C991",
"M c #EFD2AC",
"N c #F6D3AE",
"B c #E7D7B4",
"V c #F0D2B4",
"C c #F9E3B2",
"Z c #89AACD",
"A c #99B6D4",
"S c #9DB8D5",
"D c #A9C1DA",
"F c #B4C9DF",
"G c #CDD0D7",
"H c #FCE0C4",
"J c #FDF6C2",
"K c #FDF6C4",
"L c #FDF7C7",
"P c #F7EADC",
"I c #CCD5E1",
"U c #D0E3FD",
"Y c #D1E4FC",
"T c #DFECFE",
"R c #FFF2E0",
"E c #FFF3E5",
"W c #E7EEF5",
"Q c #E2EEFE",
"! c #E5F0FE",
"~ c #E6F0FE",
"^ c #EFF3F8",
"/ c #E8F1FE",
"( c #E9F2FE",
") c #F0F6FE",
"_ c #FBFCFD",
"` c #FDFEFE",
"' c gray100",
"] c None",
/* pixels */
"]]]]]]]]]]]]<x-]",
"]]]]]]]]]]]6VEM%",
"]]]]]]]]]]aCbNH3",
"]]]]]]]]]aLyr3,]",
"]]]]]]]]pL0wa;]]",
"]jjjjjhuL9wf=]]]",
"jD_``B4Jtef*]]]]",
"j`)(v5c78i:z]]]]",
"k`(~+R>.&$PZ]]]]",
"k`!QXnm#OG`Z]]]]",
"j`(Q o@2IY`l]]]]",
"jD````QY(`Fj]]]]",
"]jjjjS``^Sj]]]]]",
"]]]]]jWSj]]]]]]]",
"]]]]jAj]]]]]]]]]",
"]]]]j]]]]]]]]]]]"
};
